<svg width="512" height="512" viewBox="0 0 512 512" fill="none" xmlns="http://www.w3.org/2000/svg">
<path d="M39.3847 256.308L157.539 453.231L275.692 256.308L393.846 59.3846H157.539L39.3847 256.308Z" fill="#448844"/>
<path d="M39.3847 256.308L157.539 453.231L275.692 256.308M39.3847 256.308L157.539 59.3846M39.3847 256.308H275.692M157.539 59.3846L275.692 256.308M157.539 59.3846H393.846L275.692 256.308M275.692 256.308H472.615" stroke="black" stroke-width="16"/>
<path d="M157.539 59.3846V453.231" stroke="black" stroke-width="12" stroke-dasharray="24 24"/>
<circle cx="393.846" cy="453.231" r="39.3846" fill="#FF0000"/>
<circle cx="39.3846" cy="39.3846" r="39.3846" transform="matrix(-1 0 0 1 196.923 413.846)" fill="#008800"/>
<circle cx="39.3846" cy="39.3846" r="39.3846" transform="matrix(-1 0 0 1 78.7693 216.923)" fill="#008800"/>
<circle cx="39.3846" cy="39.3846" r="39.3846" transform="matrix(-1 0 0 1 433.231 20)" fill="#008800"/>
<circle cx="39.3846" cy="39.3846" r="39.3846" transform="matrix(-1 0 0 1 196.923 20)" fill="#008800"/>
<circle cx="39.3846" cy="39.3846" r="39.3846" transform="matrix(-1 0 0 1 315.077 216.923)" fill="#008800"/>
<circle cx="39.3846" cy="39.3846" r="39.3846" transform="matrix(-1 0 0 1 512 216.923)" fill="#008800"/>
</svg>
